<?xml version="1.0" encoding="UTF-8"?>
<!DOCTYPE svg PUBLIC "-//W3C//DTD SVG 1.1//EN" "http://www.w3.org/Graphics/SVG/1.1/DTD/svg11.dtd">
<svg xmlns="http://www.w3.org/2000/svg" version="1.1" width="512px" height="512px" style="shape-rendering:geometricPrecision; text-rendering:geometricPrecision; image-rendering:optimizeQuality; fill-rule:evenodd; clip-rule:evenodd" xmlns:xlink="http://www.w3.org/1999/xlink">
<g><path style="opacity:0.98" fill="#020200" d="M 306.5,125.5 C 302.453,127.355 298.953,126.688 296,123.5C 287.303,107.998 278.47,92.665 269.5,77.5C 265.35,69.1994 260.683,61.1994 255.5,53.5C 231.596,94.3012 207.929,135.301 184.5,176.5C 185.167,176.833 185.833,177.167 186.5,177.5C 192.511,176.398 198.511,175.231 204.5,174C 219.713,148.411 234.546,122.578 249,96.5C 252.079,93.515 255.579,92.8483 259.5,94.5C 275.074,120.642 290.407,146.975 305.5,173.5C 312.405,175.516 319.405,176.682 326.5,177C 321.333,167.833 316.167,158.667 311,149.5C 310.481,145.868 311.647,142.868 314.5,140.5C 318.21,138.975 321.543,139.642 324.5,142.5C 332.248,156.331 340.248,169.998 348.5,183.5C 383.93,195.466 417.097,211.799 448,232.5C 451.542,239.736 449.542,244.403 442,246.5C 423.788,235.974 405.288,225.807 386.5,216C 377.945,212.043 369.278,208.71 360.5,206C 368.248,219.499 376.248,232.832 384.5,246C 407.724,255.851 429.224,268.351 449,283.5C 450.098,287.505 449.265,291.005 446.5,294C 437.7,299.303 429.033,304.803 420.5,310.5C 450.608,363.726 480.941,416.726 511.5,469.5C 511.5,472.5 511.5,475.5 511.5,478.5C 510.317,479.504 508.984,480.338 507.5,481C 394.167,481.667 280.833,481.667 167.5,481C 164.778,479.728 163.444,477.561 163.5,474.5C 163.269,471.215 164.603,468.715 167.5,467C 275.166,466.5 382.833,466.333 490.5,466.5C 475.631,439.103 460.464,411.77 445,384.5C 432.323,361.802 419.156,339.468 405.5,317.5C 400.824,319.838 396.158,322.171 391.5,324.5C 413.333,362.833 435.167,401.167 457,439.5C 458.291,443.672 457.124,446.839 453.5,449C 321.834,449.5 190.167,449.667 58.5,449.5C 53.8926,447.228 52.3926,443.562 54,438.5C 75.3333,401.167 96.6667,363.833 118,326.5C 118.749,325.365 118.583,324.365 117.5,323.5C 113.5,321.5 109.5,319.5 105.5,317.5C 104.522,317.977 103.689,318.643 103,319.5C 75.2932,368.415 47.4598,417.248 19.5,466C 59.4986,466.5 99.4986,466.667 139.5,466.5C 143.666,467.465 145.999,470.132 146.5,474.5C 146.161,477.669 144.495,479.836 141.5,481C 95.8333,481.667 50.1667,481.667 4.5,481C 2.4156,480.303 0.748938,479.136 -0.5,477.5C -0.5,474.833 -0.5,472.167 -0.5,469.5C 30.0591,416.726 60.3925,363.726 90.5,310.5C 81.2479,304.624 72.0812,298.624 63,292.5C 62.1628,290.649 61.3295,288.816 60.5,287C 61.3295,285.184 62.1628,283.351 63,281.5C 82.987,267.752 104.154,255.918 126.5,246C 134.989,232.896 142.489,219.396 149,205.5C 140.768,208.801 132.602,212.301 124.5,216C 105.712,225.807 87.2116,235.974 69,246.5C 61.8073,244.664 59.4739,240.331 62,233.5C 93.5516,212.141 127.385,195.141 163.5,182.5C 191.333,133.5 219.167,84.5 247,35.5C 250.914,28.9039 255.914,27.9039 262,32.5C 278.707,61.2516 294.874,90.2516 310.5,119.5C 310.068,122.181 308.734,124.181 306.5,125.5 Z"/></g>
<g><path style="opacity:1" fill="#e0c002" d="M 269.5,77.5 C 265.414,82.6649 262.08,88.3315 259.5,94.5C 255.579,92.8483 252.079,93.515 249,96.5C 234.546,122.578 219.713,148.411 204.5,174C 198.511,175.231 192.511,176.398 186.5,177.5C 185.833,177.167 185.167,176.833 184.5,176.5C 207.929,135.301 231.596,94.3012 255.5,53.5C 260.683,61.1994 265.35,69.1994 269.5,77.5 Z"/></g>
<g><path style="opacity:0.995" fill="#fada00" d="M 269.5,77.5 C 278.47,92.665 287.303,107.998 296,123.5C 298.953,126.688 302.453,127.355 306.5,125.5C 309.434,130.368 312.1,135.368 314.5,140.5C 311.647,142.868 310.481,145.868 311,149.5C 316.167,158.667 321.333,167.833 326.5,177C 319.405,176.682 312.405,175.516 305.5,173.5C 290.407,146.975 275.074,120.642 259.5,94.5C 262.08,88.3315 265.414,82.6649 269.5,77.5 Z"/></g>
<g><path style="opacity:1" fill="#fbdb00" d="M 254.5,116.5 C 256.433,117.642 257.933,119.308 259,121.5C 268.04,137.748 277.207,153.915 286.5,170C 265.81,169.501 245.143,169.335 224.5,169.5C 234.777,151.941 244.777,134.274 254.5,116.5 Z"/></g>
<g><path style="opacity:1" fill="#fada00" d="M 236.5,184.5 C 256.621,183.92 276.621,185.087 296.5,188C 303.04,199.582 309.707,211.082 316.5,222.5C 315.333,222.833 314.167,223.167 313,223.5C 274.315,215.593 235.648,215.593 197,223.5C 196.167,223.167 195.333,222.833 194.5,222.5C 200.967,210.871 207.634,199.371 214.5,188C 221.915,186.501 229.248,185.335 236.5,184.5 Z"/></g>
<g><path style="opacity:1" fill="#debe02" d="M 190.5,191.5 C 191.978,191.238 193.311,191.571 194.5,192.5C 187.467,204.371 180.633,216.371 174,228.5C 166.146,231.23 158.312,233.73 150.5,236C 158.046,223.745 165.213,211.245 172,198.5C 172.903,197.299 174.069,196.465 175.5,196C 180.664,194.631 185.664,193.131 190.5,191.5 Z"/></g>
<g><path style="opacity:1" fill="#f7d800" d="M 316.5,191.5 C 323.769,193.109 330.936,195.109 338,197.5C 345.374,210.415 352.874,223.249 360.5,236C 352.409,234.526 344.576,232.026 337,228.5C 329.635,216.434 322.802,204.101 316.5,191.5 Z"/></g>
<g><path style="opacity:1" fill="#343434" d="M 263.5,233.5 C 257.974,232.711 252.974,233.878 248.5,237C 242.29,241.542 237.124,247.042 233,253.5C 232.308,254.437 232.475,255.103 233.5,255.5C 217.002,268.521 212.836,284.854 221,304.5C 223.955,309.287 227.455,313.62 231.5,317.5C 236.55,326.72 243.55,334.22 252.5,340C 256.152,340.499 259.818,340.665 263.5,340.5C 237.782,343.389 218.615,333.389 206,310.5C 195.82,284.721 200.987,262.554 221.5,244C 234.154,234.503 248.154,231.003 263.5,233.5 Z"/></g>
<g><path style="opacity:1" fill="#4e4e4e" d="M 263.5,233.5 C 286.976,237.803 302.143,251.47 309,274.5C 310.894,277.844 313.727,279.178 317.5,278.5C 317.5,284.5 317.5,290.5 317.5,296.5C 314.051,295.29 311.217,296.29 309,299.5C 302.128,322.546 286.961,336.213 263.5,340.5C 259.818,340.665 256.152,340.499 252.5,340C 243.55,334.22 236.55,326.72 231.5,317.5C 247.015,327.983 262.681,328.15 278.5,318C 294.705,303.269 297.871,286.102 288,266.5C 272.837,247.666 254.671,243.999 233.5,255.5C 232.475,255.103 232.308,254.437 233,253.5C 237.124,247.042 242.29,241.542 248.5,237C 252.974,233.878 257.974,232.711 263.5,233.5 Z"/></g>
<g><path style="opacity:1" fill="#fdfdfd" d="M 186.5,332.5 C 162.765,322.966 139.765,311.8 117.5,299C 110.241,289.938 110.907,281.605 119.5,274C 140.279,262.11 161.612,251.61 183.5,242.5C 190.857,239.795 198.524,238.295 206.5,238C 185.395,260.621 180.561,286.455 192,315.5C 195.382,323.104 199.882,329.938 205.5,336C 198.887,335.925 192.554,334.759 186.5,332.5 Z"/></g>
<g><path style="opacity:1" fill="#fdfdfd" d="M 317.5,296.5 C 317.5,290.5 317.5,284.5 317.5,278.5C 322.191,275.869 323.691,271.869 322,266.5C 318.325,255.645 312.491,246.145 304.5,238C 348.929,245.714 389.929,262.047 427.5,287C 390.62,311.299 350.453,327.799 307,336.5C 305.743,336.15 305.409,335.483 306,334.5C 315.973,324.891 321.307,313.224 322,299.5C 320.871,297.859 319.371,296.859 317.5,296.5 Z"/></g>
<g><path style="opacity:1" fill="#d7d7d7" d="M 183.5,242.5 C 161.612,251.61 140.279,262.11 119.5,274C 110.907,281.605 110.241,289.938 117.5,299C 139.765,311.8 162.765,322.966 186.5,332.5C 149.466,323.313 115.132,308.147 83.5,287C 114.263,266.453 147.596,251.62 183.5,242.5 Z"/></g>
<g><path style="opacity:1" fill="#020202" d="M 231.5,317.5 C 227.455,313.62 223.955,309.287 221,304.5C 212.836,284.854 217.002,268.521 233.5,255.5C 254.671,243.999 272.837,247.666 288,266.5C 297.871,286.102 294.705,303.269 278.5,318C 262.681,328.15 247.015,327.983 231.5,317.5 Z"/></g>
<g><path style="opacity:1" fill="#d9d9d9" d="M 250.5,263.5 C 273.698,264.583 282.198,276.249 276,298.5C 268.004,309.943 257.504,313.11 244.5,308C 232.726,299.747 229.56,288.914 235,275.5C 238.659,269.435 243.826,265.435 250.5,263.5 Z"/></g>
<g><path style="opacity:1" fill="#ddbd02" d="M 58.5,449.5 C 57.5041,449.414 56.6708,449.748 56,450.5C 53.2928,455.416 50.4594,460.249 47.5,465C 78.3361,465.168 109.003,465.668 139.5,466.5C 99.4986,466.667 59.4986,466.5 19.5,466C 47.4598,417.248 75.2932,368.415 103,319.5C 103.689,318.643 104.522,317.977 105.5,317.5C 109.5,319.5 113.5,321.5 117.5,323.5C 118.583,324.365 118.749,325.365 118,326.5C 96.6667,363.833 75.3333,401.167 54,438.5C 52.3926,443.562 53.8926,447.228 58.5,449.5 Z"/></g>
<g><path style="opacity:1" fill="#f7d800" d="M 163.5,474.5 C 157.833,474.5 152.167,474.5 146.5,474.5C 145.999,470.132 143.666,467.465 139.5,466.5C 109.003,465.668 78.3361,465.168 47.5,465C 50.4594,460.249 53.2928,455.416 56,450.5C 56.6708,449.748 57.5041,449.414 58.5,449.5C 190.167,449.667 321.834,449.5 453.5,449C 457.124,446.839 458.291,443.672 457,439.5C 435.167,401.167 413.333,362.833 391.5,324.5C 396.158,322.171 400.824,319.838 405.5,317.5C 419.156,339.468 432.323,361.802 445,384.5C 460.464,411.77 475.631,439.103 490.5,466.5C 382.833,466.333 275.166,466.5 167.5,467C 164.603,468.715 163.269,471.215 163.5,474.5 Z"/></g>
<g><path style="opacity:1" fill="#fcdc00" d="M 135.5,434.5 C 114.993,434.83 94.6598,434.497 74.5,433.5C 93.902,399.031 113.569,364.698 133.5,330.5C 173.708,347.717 215.708,356.384 259.5,356.5C 278.967,355.642 298.3,353.808 317.5,351C 297.646,368.098 277.979,385.431 258.5,403C 237.86,420.485 214.193,431.819 187.5,437C 155.579,441.405 139.412,427.571 139,395.5C 148.539,374.142 164.039,367.976 185.5,377C 190.559,380.612 192.726,385.446 192,391.5C 189.562,395.377 187.395,399.377 185.5,403.5C 187.031,410.044 191.031,412.211 197.5,410C 208.458,397.431 209.291,384.264 200,370.5C 185.811,357.462 169.645,354.296 151.5,361C 128.706,373.419 120.206,392.252 126,417.5C 128.151,423.808 131.318,429.475 135.5,434.5 Z"/></g>
<g><path style="opacity:1" fill="#fddd00" d="M 436.5,433.5 C 410.005,434.498 383.339,434.831 356.5,434.5C 356.167,402.493 356.5,370.493 357.5,338.5C 364.167,335.833 370.833,333.167 377.5,330.5C 397.431,364.698 417.098,399.031 436.5,433.5 Z"/></g>
<g><path style="opacity:1" fill="#a28e00" d="M 339.5,351.5 C 339.56,350.957 339.893,350.624 340.5,350.5C 341.5,378.492 341.833,406.492 341.5,434.5C 341.167,434.5 340.833,434.5 340.5,434.5C 340.831,406.662 340.498,378.995 339.5,351.5 Z"/></g>
<g><path style="opacity:1" fill="#fddd00" d="M 339.5,351.5 C 340.498,378.995 340.831,406.662 340.5,434.5C 306.329,434.832 272.329,434.498 238.5,433.5C 248.816,428.343 258.483,422.176 267.5,415C 291.397,393.596 315.397,372.429 339.5,351.5 Z"/></g>
<g><path style="opacity:1" fill="#443b00" d="M 74.5,433.5 C 94.6598,434.497 114.993,434.83 135.5,434.5C 114.996,435.828 94.3294,435.828 73.5,434.5C 73.6236,433.893 73.9569,433.56 74.5,433.5 Z"/></g>
<g><path style="opacity:1" fill="#433a00" d="M 238.5,433.5 C 272.329,434.498 306.329,434.832 340.5,434.5C 340.833,434.5 341.167,434.5 341.5,434.5C 306.669,435.664 271.669,435.831 236.5,435C 237.044,434.283 237.711,433.783 238.5,433.5 Z"/></g>
<g><path style="opacity:1" fill="#433a00" d="M 436.5,433.5 C 437.043,433.56 437.376,433.893 437.5,434.5C 410.336,435.829 383.336,435.829 356.5,434.5C 383.339,434.831 410.005,434.498 436.5,433.5 Z"/></g>
</svg>
